<svg xmlns="http://www.w3.org/2000/svg" id="logo" width="512" height="512" viewBox="0 0 512.002 512.002">
  <path d="M512.002 97.21c-18.84 8.355-39.082 14.002-60.33 16.54 21.686-13 38.342-33.584 46.186-58.114-20.3 12.04-42.777 20.78-66.705 25.49-19.16-20.415-46.46-33.17-76.674-33.17-58.014 0-105.045 47.03-105.045 105.04 0 8.232.93 16.25 2.72 23.938-87.3-4.382-164.7-46.2-216.51-109.753-9.04 15.517-14.222 33.56-14.222 52.81 0 36.446 18.544 68.598 46.73 87.435-17.22-.546-33.416-5.27-47.577-13.14-.01.44-.01.88-.01 1.322 0 50.894 36.21 93.348 84.26 103-8.812 2.4-18.093 3.687-27.673 3.687-6.77 0-13.35-.66-19.764-1.888 13.37 41.73 52.16 72.104 98.126 72.95-35.95 28.175-81.243 44.966-130.458 44.966-8.48 0-16.84-.495-25.06-1.47 46.486 29.807 101.7 47.197 161.02 47.197 193.21 0 298.87-160.063 298.87-298.873 0-4.554-.105-9.084-.306-13.59 20.526-14.81 38.335-33.31 52.417-54.373z"/>
</svg>
